# xmcd
#
# Track frame offsets: 
#        150
#        20947
#        54967
#        77995
#        100429
#        120553
#        144953
#        163747
#        187957
#        212360
#        236470
#        258637
#
# Disc length: 3771 seconds
#
# Revision: 0
# Processed by: cddbd v1.5.2PL0 Copyright (c) Steve Scherf et al.
# Submitted via: ExactAudioCopyFreeDBPlugin 1.0
#
DISCID=a10eb90c
DTITLE=Larry Carlton - Sleepwalk Part2 and Friends
DYEAR=1983
DGENRE=Rock
TTITLE0=05 Sleepwalk
TTITLE1=06 Upper Kern
TTITLE2=07 10:00 P.M.
TTITLE3=08 You Gotta Get It While you can
TTITLE4=01 Breaking Ground
TTITLE5=02 South Town
TTITLE6=03 Tequila
TTITLE7=04 Blues For T.J.
TTITLE8=05 Song In The 5th Grade
TTITLE9=06 Crusin'
TTITLE10=07 L.A., N.Y.
TTITLE11=08 Friends
EXTD=
EXTT0=
EXTT1=
EXTT2=
EXTT3=
EXTT4=
EXTT5=
EXTT6=
EXTT7=
EXTT8=
EXTT9=
EXTT10=
EXTT11=
PLAYORDER=
